{"title":"Jeremih ft Ludacris - I Like [KingPinVideos]","uid":5804679,"size":78903005,"categoryP":"video","categoryS":"music_videos","magnet":"?xt=urn:btih:a6fb968d4c52232a35c7f9c969a57ad60e834ef3&amp;dn=Jeremih+ft+Ludacris+-+I+Like+%5BKingPinVideos%5D&amp;tr=udp%3A%2F%2Ftracker.openbittorrent.com%3A80&amp;tr=udp%3A%2F%2Fopen.demonii.com%3A1337&amp;tr=udp%3A%2F%2Ftracker.coppersurfer.tk%3A6969&amp;tr=udp%3A%2F%2Fexodus.desync.com%3A6969","seeders":0,"leechers":0,"uploader":"KingPinMan","files":4,"time":1283407724,"description":"[img]http://a.imageshack.us/img651/9599/jeremihlike.png[/img]\n\n[img]http://a.imageshack.us/img23/4275/jeremihlike2.png[/img]\n\n\n[code]General\nComplete name                    : Jeremih ft Ludacris - I Like [KingPinVideos].mpg\nFormat                           : MPEG-PS\nFile size                        : 75.2 MiB\nDuration                         : 3mn 40s\nOverall bit rate                 : 2 857 Kbps\nWriting library                  : encoded by TMPGEnc 4.0 XPress Version. 4.7.4.299\n\nVideo\nID                               : 224 (0xE0)\nFormat                           : MPEG Video\nFormat version                   : Version 1\nFormat settings, BVOP            : Yes\nFormat settings, Matrix          : Default\nDuration                         : 3mn 40s\nBit rate mode                    : Constant\nBit rate                         : 2 616 Kbps\nNominal bit rate                 : 2 700 Kbps\nWidth                            : 384 pixels\nHeight                           : 208 pixels\nDisplay aspect ratio             : 16:9\nFrame rate                       : 29.970 fps\nResolution                       : 8 bits\nScan type                        : Progressive\nBits/(Pixel*Frame)               : 1.093\nStream size                      : 68.9 MiB (92%)\nWriting library                  : TMPGEnc XPress 4.7.4.299\n\nAudio\nID                               : 192 (0xC0)\nFormat                           : MPEG Audio\nFormat version                   : Version 1\nFormat profile                   : Layer 2\nDuration                         : 3mn 40s\nBit rate mode                    : Constant\nBit rate                         : 128 Kbps\nChannel(s)                       : 2 channels\nSampling rate                    : 48.0 KHz\nStream size                      : 3.37 MiB (4%)[/code]\n\nMake Sure To Check Us Out On Our Site For More Brand New Videos\nwww.KingPinVideos.com","torrent":{"xt":"urn:btih:a6fb968d4c52232a35c7f9c969a57ad60e834ef3","amp;dn":"Jeremih+ft+Ludacris+-+I+Like+%5BKingPinVideos%5D","amp;tr":["udp%3A%2F%2Ftracker.openbittorrent.com%3A80","udp%3A%2F%2Fopen.demonii.com%3A1337","udp%3A%2F%2Ftracker.coppersurfer.tk%3A6969","udp%3A%2F%2Fexodus.desync.com%3A6969"],"infoHash":"a6fb968d4c52232a35c7f9c969a57ad60e834ef3","infoHashBuffer":{"type":"Buffer","data":[166,251,150,141,76,82,35,42,53,199,249,201,105,165,122,214,14,131,78,243]},"announce":[],"urlList":[]}}